<svg width="321" height="80" viewBox="0 0 321 80" fill="none" xmlns="http://www.w3.org/2000/svg">
<path d="M43.3886 44.3116H29.958L29.8157 40.1863C29.8095 40.0074 29.8421 39.8294 29.9113 39.6644C29.9806 39.4994 30.0851 39.3514 30.2171 39.2305C30.3492 39.1096 30.5061 39.0188 30.6764 38.9642C30.8471 38.9096 31.0273 38.8926 31.2053 38.9144L39.0207 39.8704H39.0218C40.1803 39.8735 41.2905 40.3354 42.1091 41.1547C42.9278 41.9741 43.3878 43.0842 43.3886 44.2417V44.3116Z" fill="#00B207"/>
<path d="M37.4025 29.6783H28.0353C27.9109 29.6783 27.7873 29.7028 27.6725 29.7504C27.5573 29.798 27.4528 29.8678 27.3644 29.9558C27.2764 30.0438 27.2067 30.1483 27.1589 30.2633C27.1114 30.3783 27.0869 30.5015 27.0869 30.626V39.9839C27.0869 40.1083 27.1114 40.2316 27.1589 40.3466C27.2067 40.4616 27.2764 40.566 27.3644 40.6541C27.4528 40.7421 27.5573 40.8119 27.6725 40.8595C27.7873 40.9071 27.9109 40.9316 28.0353 40.9315H37.4025C37.5269 40.9316 37.6505 40.9071 37.7654 40.8595C37.8806 40.8119 37.985 40.7421 38.0734 40.6541C38.1615 40.566 38.2311 40.4616 38.279 40.3466C38.3264 40.2316 38.3509 40.1083 38.3509 39.9839V30.626C38.3509 30.5015 38.3264 30.3783 38.279 30.2633C38.2311 30.1483 38.1615 30.0438 38.0734 29.9558C37.985 29.8678 37.8806 29.798 37.7654 29.7504C37.6505 29.7028 37.5269 29.6783 37.4025 29.6783Z" fill="#949494"/>
<path d="M35.2927 36.6758L30.8704 37.5362C30.6079 37.587 30.3362 37.5317 30.1146 37.3825C29.893 37.2333 29.7399 37.0024 29.6882 36.7404L29.3484 34.9963C29.2975 34.7343 29.353 34.4628 29.5022 34.2414C29.6515 34.02 29.8826 33.8669 30.1448 33.8156L34.5674 32.9552C34.83 32.9044 35.1017 32.9597 35.3233 33.1089C35.5449 33.2581 35.698 33.489 35.7496 33.751L36.0895 35.4951C36.1404 35.7572 36.0849 36.0286 35.9356 36.25C35.7864 36.4714 35.5552 36.6245 35.2927 36.6758Z" fill="#3F3D56"/>
<path d="M34.4078 34.6154L31.0327 35.272C30.9711 35.284 30.9072 35.2711 30.8551 35.2359C30.8027 35.2008 30.7667 35.1464 30.7548 35.0848C30.7426 35.0231 30.7556 34.9592 30.7908 34.9071C30.826 34.855 30.8804 34.819 30.9424 34.807L34.3175 34.1503C34.3791 34.1383 34.443 34.1513 34.4951 34.1864C34.5475 34.2215 34.5835 34.2759 34.5954 34.3376C34.6076 34.3993 34.5946 34.4632 34.5594 34.5153C34.5242 34.5674 34.4698 34.6034 34.4078 34.6154Z" fill="#00B207"/>
<path d="M33.7519 35.5878L32.0063 35.9274C31.9443 35.9395 31.8804 35.9265 31.8284 35.8913C31.7763 35.8562 31.7403 35.8019 31.7281 35.7402C31.7162 35.6785 31.7292 35.6146 31.7641 35.5625C31.7993 35.5104 31.854 35.4743 31.9156 35.4623L33.6612 35.1227C33.6918 35.1168 33.7232 35.1169 33.7538 35.1231C33.7844 35.1293 33.8135 35.1414 33.8391 35.1588C33.8652 35.1762 33.8873 35.1985 33.9042 35.2244C33.9214 35.2504 33.9337 35.2794 33.9394 35.31C33.9455 35.3405 33.9451 35.3719 33.939 35.4024C33.9329 35.4329 33.9206 35.4619 33.9034 35.4877C33.8858 35.5135 33.8636 35.5356 33.8376 35.5528C33.8116 35.57 33.7825 35.5819 33.7519 35.5878Z" fill="#00B207"/>
<path d="M38.3509 30.626V31.8697H27.0869V30.626C27.0869 30.5015 27.1114 30.3783 27.1589 30.2633C27.2067 30.1483 27.2764 30.0438 27.3644 29.9558C27.4528 29.8678 27.5573 29.798 27.6725 29.7504C27.7873 29.7028 27.9109 29.6783 28.0353 29.6783H37.4025C37.5269 29.6783 37.6505 29.7028 37.7654 29.7504C37.8806 29.798 37.985 29.8678 38.0731 29.9558C38.1615 30.0438 38.2311 30.1483 38.279 30.2633C38.3264 30.3783 38.3509 30.5015 38.3509 30.626Z" fill="#3E3939"/>
<path d="M60.8444 32.2592C60.7794 32.0495 60.6691 31.8566 60.5214 31.6941C60.3737 31.5316 60.1923 31.4033 59.9894 31.3185C59.7866 31.2337 59.5677 31.1943 59.3484 31.2031C59.1287 31.2119 58.9136 31.2687 58.7185 31.3695L45.8318 26.7504L45.2642 29.9666L58.1099 33.4957C58.3013 33.8121 58.6017 34.0475 58.9554 34.1572C59.3086 34.2669 59.6898 34.2433 60.027 34.0909C60.3641 33.9385 60.6335 33.6679 60.784 33.3302C60.9347 32.9927 60.9562 32.6116 60.8444 32.2592Z" fill="#FFB8B8"/>
<path opacity="0.2" d="M60.8444 32.2592C60.7794 32.0495 60.6691 31.8566 60.5214 31.6941C60.3737 31.5316 60.1923 31.4033 59.9894 31.3185C59.7866 31.2337 59.5677 31.1943 59.3484 31.2031C59.1287 31.2119 58.9136 31.2687 58.7185 31.3695L45.8318 26.7504L45.2642 29.9666L58.1099 33.4957C58.3013 33.8121 58.6017 34.0475 58.9554 34.1572C59.3086 34.2669 59.6898 34.2433 60.027 34.0909C60.3641 33.9385 60.6335 33.6679 60.784 33.3302C60.9347 32.9927 60.9562 32.6116 60.8444 32.2592Z" fill="black"/>
<path d="M48.1189 27.3365L46.9022 30.5125C46.8674 30.6029 46.8138 30.6848 46.7446 30.7525C46.6753 30.8203 46.5926 30.8724 46.5015 30.9052C46.4104 30.9381 46.3132 30.9509 46.2168 30.9429C46.12 30.9348 46.0266 30.9061 45.942 30.8586L42.9844 29.1956C42.5229 29.016 42.1512 28.6608 41.9511 28.2079C41.7513 27.7549 41.7391 27.2412 41.9174 26.7794C42.0961 26.3176 42.4505 25.9454 42.9033 25.7443C43.356 25.5432 43.8704 25.5296 44.3331 25.7067L47.6355 26.4384C47.73 26.4594 47.8192 26.5005 47.8965 26.5589C47.9734 26.6173 48.0374 26.6916 48.0833 26.7769C48.1292 26.8621 48.156 26.9562 48.1621 27.0528C48.1682 27.1493 48.1537 27.2461 48.1189 27.3365Z" fill="#00B207"/>
<path d="M61.859 35.2001L57.2412 37.297L57.8474 39.5771C59.0181 43.9802 59.3289 48.5674 58.7625 53.088L62.1388 53.7922L64.9372 46.663L63.9578 38.5551L61.859 35.2001Z" fill="#00B207"/>
<path d="M70.9193 45.7543C67.8852 45.7543 65.4129 47.9577 65.2927 50.7169H76.5456C76.4254 47.9577 73.9531 45.7543 70.9193 45.7543Z" fill="#3F3D56"/>
<path d="M68.5572 46.2299C68.3995 33.7747 61.2991 34.9205 61.2991 34.9205C61.2991 34.9205 61.4319 38.7974 61.4958 38.9179C66.0202 47.4703 58.5531 57.4967 49.0477 55.6521C48.8686 55.6173 48.6964 55.5821 48.5314 55.5466C47.327 55.295 46.2635 54.595 45.5574 53.5884C44.8513 52.5819 44.5558 51.3444 44.7303 50.1277C45.6668 42.6159 41.0096 42.7488 41.0096 42.7488H34.2L30.6634 39.5692C30.5386 39.4569 30.3882 39.3769 30.2252 39.3362C30.0621 39.2955 29.8918 39.2953 29.7288 39.3355C29.5658 39.3758 29.415 39.4554 29.2898 39.5673C29.1651 39.6792 29.069 39.82 29.0112 39.9775L28.5562 41.2112C28.5562 41.2112 21.8395 41.9101 22.3993 48.4803H24.4758C24.4708 48.667 24.4782 48.8538 24.4982 49.0395L39.9954 48.9136C40.9036 48.9062 41.7054 49.6416 41.7092 50.5491C41.7104 50.7701 41.6664 50.9889 41.5806 51.1926C41.4953 51.3963 41.3694 51.5806 41.2105 51.7345C41.0517 51.8885 40.8638 52.0089 40.6575 52.0885C40.4512 52.1682 40.2308 52.2054 40.01 52.1981L37.5116 52.1149C36.742 55.5397 38.6311 57.8462 40.7123 59.2967C42.6721 60.6424 44.9975 61.3558 47.3753 61.3412H54.1627C62.9784 61.3412 64.5173 53.9321 64.5173 53.9321C69.1351 51.9751 68.5572 46.2299 68.5572 46.2299Z" fill="#3F3D56"/>
<path d="M70.4995 65.3953C74.8463 65.3953 78.3703 61.8746 78.3703 57.5319C78.3703 53.1889 74.8463 49.6685 70.4995 49.6685C66.1523 49.6685 62.6286 53.1889 62.6286 57.5319C62.6286 61.8746 66.1523 65.3953 70.4995 65.3953Z" fill="#3F3D56"/>
<path d="M70.4995 59.4591C71.565 59.4591 72.4284 58.5963 72.4284 57.5319C72.4284 56.4672 71.565 55.6043 70.4995 55.6043C69.434 55.6043 68.5702 56.4672 68.5702 57.5319C68.5702 58.5963 69.434 59.4591 70.4995 59.4591Z" fill="#00B207"/>
<path d="M30.7598 65.3949C35.7638 65.3949 39.8201 61.3424 39.8201 56.3437C39.8201 51.3446 35.7638 47.292 30.7598 47.292C25.7562 47.292 21.6996 51.3446 21.6996 56.3437C21.6996 61.3424 25.7562 65.3949 30.7598 65.3949Z" fill="#3F3D56"/>
<path d="M30.7598 58.5622C31.9864 58.5622 32.9807 57.569 32.9807 56.3437C32.9807 55.1184 31.9864 54.1252 30.7598 54.1252C29.5336 54.1252 28.5393 55.1184 28.5393 56.3437C28.5393 57.569 29.5336 58.5622 30.7598 58.5622Z" fill="#00B207"/>
<path d="M57.2542 37.9165L55.5929 33.4083C55.5064 33.1734 55.467 32.9237 55.4769 32.6735C55.4869 32.4233 55.5462 32.1776 55.6514 31.9503C55.7563 31.723 55.9052 31.5186 56.0892 31.3487C56.2733 31.1789 56.4892 31.047 56.7245 30.9605L61.4878 29.2087C61.9015 29.0565 62.3412 28.9872 62.7817 29.0047C63.2226 29.0223 63.6555 29.1264 64.0558 29.3111C64.4561 29.4957 64.8162 29.7574 65.1151 30.0811C65.4144 30.4047 65.6467 30.7841 65.799 31.1975C65.9364 31.5686 66.0068 31.9611 66.0065 32.3568C66.0046 32.8591 65.8909 33.3547 65.6731 33.8077C65.4557 34.2606 65.14 34.6594 64.7489 34.975C64.466 35.2015 64.1484 35.3804 63.8082 35.5047L57.2542 37.9165Z" fill="#3F3D56"/>
<path d="M65.9364 32.3567C65.936 32.8488 65.825 33.3346 65.6119 33.7783C65.3991 34.222 65.0891 34.6123 64.7049 34.9205C64.1159 34.7653 63.5674 34.4837 63.0982 34.0954C62.629 33.707 62.2501 33.2213 61.988 32.6718C61.7254 32.1224 61.5861 31.5225 61.5792 30.9138C61.5724 30.3051 61.6983 29.7022 61.9486 29.1471C62.4285 29.0428 62.9256 29.0473 63.4036 29.1601C63.8816 29.273 64.3283 29.4913 64.7106 29.7991C65.0933 30.107 65.4018 30.4965 65.6138 30.9391C65.8262 31.3817 65.936 31.866 65.9364 32.3567Z" fill="#00B207"/>
<path d="M23.5886 49.3889C24.6706 49.3889 25.5477 48.3249 25.5477 47.0125C25.5477 45.7 24.6706 44.636 23.5886 44.636C22.5067 44.636 21.6297 45.7 21.6297 47.0125C21.6297 48.3249 22.5067 49.3889 23.5886 49.3889Z" fill="#00B207"/>
<path d="M49.484 55.4246H51.1993L52.0156 50.9796L49.4836 50.9798L49.484 55.4246Z" fill="#FFB8B8"/>
<path d="M49.0462 54.8649H52.4248C52.7076 54.8649 52.9874 54.9204 53.2488 55.0286C53.5098 55.1368 53.747 55.295 53.9472 55.495C54.147 55.6945 54.3058 55.9316 54.4137 56.1927C54.522 56.4534 54.5779 56.7333 54.5779 57.0158V57.0858H49.0462V54.8649Z" fill="#2F2E41"/>
<path d="M51.4749 53.6002C51.455 53.6002 51.4351 53.5991 51.4148 53.5972L49.0408 53.4248C48.9448 53.4156 48.8522 53.385 48.7699 53.3345C48.6876 53.2841 48.6179 53.2156 48.5666 53.1342C48.515 53.0528 48.4828 52.9606 48.4729 52.8651C48.4626 52.7691 48.4744 52.6723 48.5077 52.5818L51.685 45.4504C51.7076 45.3868 51.7171 45.3192 51.7122 45.2519C51.7076 45.1846 51.6888 45.119 51.6574 45.0592C51.6264 44.9986 51.5824 44.9455 51.5292 44.9031C51.476 44.8607 51.414 44.83 51.3482 44.8131C49.8541 44.423 46.0208 43.3841 42.7024 42.1686C41.281 41.6478 40.3854 40.8952 40.0414 39.9316C39.5875 38.6614 40.2587 37.5029 40.2874 37.4543L40.31 37.4162L43.4326 37.6998L46.8177 37.9874L54.2358 41.9614C54.8573 42.2971 55.3292 42.8545 55.558 43.5225C55.7865 44.1905 55.7551 44.92 55.4696 45.5658L52.0497 53.2275C52 53.3384 51.9196 53.4328 51.8174 53.4989C51.7156 53.5651 51.5966 53.6002 51.4749 53.6002Z" fill="#2F2E41"/>
<path d="M43.9756 23.5907C45.8735 23.5907 47.4124 22.0535 47.4124 20.1573C47.4124 18.2611 45.8735 16.7239 43.9756 16.7239C42.0774 16.7239 40.5389 18.2611 40.5389 20.1573C40.5389 22.0535 42.0774 23.5907 43.9756 23.5907Z" fill="#FFB8B8"/>
<path d="M48.5043 55.844H50.22L51.0359 51.399L48.5039 51.3991L48.5043 55.844Z" fill="#FFB8B8"/>
<path d="M48.0668 55.2843H51.445H51.4454C51.7279 55.2843 52.008 55.3398 52.269 55.4479C52.5304 55.5561 52.7677 55.7144 52.9678 55.9144C53.1676 56.1139 53.3261 56.351 53.4344 56.6121C53.5427 56.8728 53.5982 57.1527 53.5982 57.4352V57.5052H48.0668V55.2843Z" fill="#2F2E41"/>
<path d="M50.4955 54.0197C50.4756 54.0197 50.4553 54.0185 50.4354 54.0166L48.0611 53.8442C47.9654 53.835 47.8724 53.8044 47.7905 53.7539C47.7082 53.7035 47.6386 53.6351 47.5873 53.5536C47.5356 53.4722 47.5035 53.38 47.4931 53.2845C47.4832 53.1885 47.495 53.0918 47.5283 53.0012L50.7056 45.8698C50.7282 45.8062 50.7374 45.7386 50.7328 45.6713C50.7282 45.604 50.7095 45.5383 50.6781 45.4785C50.6467 45.418 50.6031 45.3648 50.5499 45.3224C50.4963 45.28 50.4347 45.2494 50.3685 45.2326C48.8747 44.8424 45.0415 43.8035 41.723 42.588C40.3012 42.0671 39.406 41.3145 39.0616 40.351C38.6081 39.0807 39.2794 37.9223 39.3081 37.8737L39.3307 37.8356L42.4532 38.1192L45.8379 38.4068L53.256 42.3807C53.8775 42.7165 54.3498 43.2739 54.5787 43.9419C54.8071 44.6099 54.7758 45.3394 54.4903 45.9851L51.07 53.6469C51.0206 53.7578 50.9402 53.8518 50.838 53.9183C50.7362 53.9845 50.6172 54.0197 50.4955 54.0197Z" fill="#2F2E41"/>
<path d="M45.0354 25.5376L41.3973 24.2795C41.3973 24.2795 39.1133 26.0325 40.2105 30.3812C40.7834 32.6253 40.6166 34.9941 39.7348 37.136C39.6288 37.4009 39.5063 37.6592 39.3682 37.9091C39.3682 37.9091 43.4261 42.8019 47.2042 39.1673L45.735 32.1078C45.735 32.1078 48.0439 27.4248 45.0354 25.5376Z" fill="#00B207"/>
<path d="M44.4024 23.7075C43.9129 22.9761 43.5271 21.9618 44.0656 21.2659C44.5972 20.5789 45.6458 20.6801 46.4598 20.3762C47.5938 19.9528 48.2513 18.6219 48.0462 17.43C47.841 16.2381 46.8835 15.25 45.7426 14.8457C44.6018 14.4415 43.3151 14.5729 42.1979 15.0385C40.8225 15.6116 39.6426 16.7202 39.1477 18.1246C38.6529 19.5289 38.9173 21.2151 39.9438 22.2945C41.0441 23.4517 42.7712 23.7601 44.3687 23.7414" fill="#2F2E41"/>
<path d="M60.6734 32.1194C60.583 31.9193 60.4499 31.7414 60.283 31.5984C60.1165 31.4553 59.9206 31.3505 59.7089 31.2913C59.4973 31.2321 59.2749 31.2199 59.0583 31.2558C58.8413 31.2915 58.635 31.3744 58.454 31.4985L45.0951 28.5032L44.929 31.7648L58.1126 33.6835C58.3415 33.9739 58.6687 34.1704 59.0331 34.2357C59.3974 34.301 59.7728 34.2307 60.0882 34.0379C60.4039 33.8451 60.6381 33.5433 60.7457 33.1897C60.8536 32.8361 60.828 32.4553 60.6734 32.1194Z" fill="#FFB8B8"/>
<path d="M47.4373 28.8028L46.6221 32.1046C46.5987 32.1986 46.5555 32.2864 46.4954 32.3622C46.4349 32.4379 46.3592 32.4998 46.2727 32.5437C46.1866 32.5875 46.0916 32.6122 45.9948 32.6161C45.898 32.6201 45.8015 32.6031 45.712 32.5664L42.5715 31.2807C42.0908 31.1596 41.6778 30.853 41.4233 30.4281C41.1684 30.0031 41.093 29.4946 41.2132 29.0141C41.3334 28.5336 41.6392 28.1203 42.064 27.865C42.4888 27.6096 42.9978 27.5331 43.4789 27.6521L46.8467 27.9712C46.9432 27.9804 47.0366 28.0102 47.1204 28.0586C47.2042 28.1071 47.2765 28.173 47.3324 28.2519C47.3886 28.3308 47.4269 28.4209 47.4449 28.5159C47.4633 28.611 47.4606 28.7088 47.4373 28.8028Z" fill="#00B207"/>
<path d="M59.1303 34.7108C59.671 34.7108 60.1096 34.2727 60.1096 33.7323C60.1096 33.1918 59.671 32.7538 59.1303 32.7538C58.5891 32.7538 58.1509 33.1918 58.1509 33.7323C58.1509 34.2727 58.5891 34.7108 59.1303 34.7108Z" fill="#00B207"/>
<path d="M113.09 32.28C113.09 34.6 112.29 36.5333 110.69 38.08C109.117 39.6 106.704 40.36 103.45 40.36H98.0904V52H94.4504V24.12H103.45C106.597 24.12 108.984 24.88 110.61 26.4C112.264 27.92 113.09 29.88 113.09 32.28ZM103.45 37.36C105.477 37.36 106.97 36.92 107.93 36.04C108.89 35.16 109.37 33.9067 109.37 32.28C109.37 28.84 107.397 27.12 103.45 27.12H98.0904V37.36H103.45ZM115.718 43.104C115.718 41.3333 116.081 39.7653 116.806 38.4C117.553 37.0347 118.556 35.9787 119.814 35.232C121.094 34.464 122.502 34.08 124.038 34.08C125.425 34.08 126.63 34.3573 127.654 34.912C128.7 35.4453 129.532 36.1173 130.15 36.928V34.368H133.83V52H130.15V49.376C129.532 50.208 128.689 50.9013 127.622 51.456C126.556 52.0107 125.34 52.288 123.974 52.288C122.46 52.288 121.073 51.904 119.814 51.136C118.556 50.3467 117.553 49.2587 116.806 47.872C116.081 46.464 115.718 44.8747 115.718 43.104ZM130.15 43.168C130.15 41.952 129.894 40.896 129.382 40C128.892 39.104 128.241 38.4213 127.43 37.952C126.62 37.4827 125.745 37.248 124.806 37.248C123.868 37.248 122.993 37.4827 122.182 37.952C121.372 38.4 120.71 39.072 120.198 39.968C119.708 40.8427 119.462 41.888 119.462 43.104C119.462 44.32 119.708 45.3867 120.198 46.304C120.71 47.2213 121.372 47.9253 122.182 48.416C123.014 48.8853 123.889 49.12 124.806 49.12C125.745 49.12 126.62 48.8853 127.43 48.416C128.241 47.9467 128.892 47.264 129.382 46.368C129.894 45.4507 130.15 44.384 130.15 43.168ZM137.406 43.168C137.406 41.3547 137.769 39.7653 138.494 38.4C139.241 37.0133 140.265 35.9467 141.566 35.2C142.867 34.4533 144.361 34.08 146.046 34.08C148.179 34.08 149.939 34.592 151.326 35.616C152.734 36.6187 153.683 38.0587 154.174 39.936H150.238C149.918 39.0613 149.406 38.3787 148.702 37.888C147.998 37.3973 147.113 37.152 146.046 37.152C144.553 37.152 143.358 37.6853 142.462 38.752C141.587 39.7973 141.15 41.2693 141.15 43.168C141.15 45.0667 141.587 46.5493 142.462 47.616C143.358 48.6827 144.553 49.216 146.046 49.216C148.158 49.216 149.555 48.288 150.238 46.432H154.174C153.662 48.224 152.702 49.6533 151.294 50.72C149.886 51.7653 148.137 52.288 146.046 52.288C144.361 52.288 142.867 51.9147 141.566 51.168C140.265 50.4 139.241 49.3333 138.494 47.968C137.769 46.5813 137.406 44.9813 137.406 43.168ZM164.785 43.2L172.913 52H167.985L161.457 44.416V52H157.809V28.32H161.457V42.08L167.857 34.368H172.913L164.785 43.2ZM191.688 42.752C191.688 43.4133 191.646 44.0107 191.56 44.544H178.088C178.195 45.952 178.718 47.0827 179.656 47.936C180.595 48.7893 181.747 49.216 183.112 49.216C185.075 49.216 186.462 48.3947 187.272 46.752H191.208C190.675 48.3733 189.704 49.7067 188.296 50.752C186.91 51.776 185.182 52.288 183.112 52.288C181.427 52.288 179.912 51.9147 178.568 51.168C177.246 50.4 176.2 49.3333 175.432 47.968C174.686 46.5813 174.312 44.9813 174.312 43.168C174.312 41.3547 174.675 39.7653 175.4 38.4C176.147 37.0133 177.182 35.9467 178.504 35.2C179.848 34.4533 181.384 34.08 183.112 34.08C184.776 34.08 186.259 34.4427 187.56 35.168C188.862 35.8933 189.875 36.9173 190.6 38.24C191.326 39.5413 191.688 41.0453 191.688 42.752ZM187.88 41.6C187.859 40.256 187.379 39.1787 186.44 38.368C185.502 37.5573 184.339 37.152 182.952 37.152C181.694 37.152 180.616 37.5573 179.72 38.368C178.824 39.1573 178.291 40.2347 178.12 41.6H187.88ZM194.062 43.104C194.062 41.3333 194.425 39.7653 195.15 38.4C195.897 37.0347 196.9 35.9787 198.158 35.232C199.438 34.464 200.857 34.08 202.414 34.08C203.566 34.08 204.697 34.336 205.806 34.848C206.937 35.3387 207.833 36 208.494 36.832V28.32H212.174V52H208.494V49.344C207.897 50.1973 207.065 50.9013 205.998 51.456C204.953 52.0107 203.748 52.288 202.382 52.288C200.846 52.288 199.438 51.904 198.158 51.136C196.9 50.3467 195.897 49.2587 195.15 47.872C194.425 46.464 194.062 44.8747 194.062 43.104ZM208.494 43.168C208.494 41.952 208.238 40.896 207.726 40C207.236 39.104 206.585 38.4213 205.774 37.952C204.964 37.4827 204.089 37.248 203.15 37.248C202.212 37.248 201.337 37.4827 200.526 37.952C199.716 38.4 199.054 39.072 198.542 39.968C198.052 40.8427 197.806 41.888 197.806 43.104C197.806 44.32 198.052 45.3867 198.542 46.304C199.054 47.2213 199.716 47.9253 200.526 48.416C201.358 48.8853 202.233 49.12 203.15 49.12C204.089 49.12 204.964 48.8853 205.774 48.416C206.585 47.9467 207.236 47.264 207.726 46.368C208.238 45.4507 208.494 44.384 208.494 43.168ZM257.088 24.12L248.008 41.48V52H244.368V41.48L235.248 24.12H239.288L246.168 38.24L253.048 24.12H257.088ZM267.895 52.288C266.231 52.288 264.727 51.9147 263.383 51.168C262.039 50.4 260.983 49.3333 260.215 47.968C259.447 46.5813 259.063 44.9813 259.063 43.168C259.063 41.376 259.458 39.7867 260.247 38.4C261.036 37.0133 262.114 35.9467 263.479 35.2C264.844 34.4533 266.37 34.08 268.055 34.08C269.74 34.08 271.266 34.4533 272.631 35.2C273.996 35.9467 275.074 37.0133 275.863 38.4C276.652 39.7867 277.047 41.376 277.047 43.168C277.047 44.96 276.642 46.5493 275.831 47.936C275.02 49.3227 273.911 50.4 272.503 51.168C271.116 51.9147 269.58 52.288 267.895 52.288ZM267.895 49.12C268.834 49.12 269.708 48.896 270.519 48.448C271.351 48 272.023 47.328 272.535 46.432C273.047 45.536 273.303 44.448 273.303 43.168C273.303 41.888 273.058 40.8107 272.567 39.936C272.076 39.04 271.426 38.368 270.615 37.92C269.804 37.472 268.93 37.248 267.991 37.248C267.052 37.248 266.178 37.472 265.367 37.92C264.578 38.368 263.948 39.04 263.479 39.936C263.01 40.8107 262.775 41.888 262.775 43.168C262.775 45.0667 263.255 46.5387 264.215 47.584C265.196 48.608 266.423 49.12 267.895 49.12ZM296.621 34.368V52H292.973V49.92C292.397 50.6453 291.64 51.2213 290.701 51.648C289.784 52.0533 288.803 52.256 287.757 52.256C286.371 52.256 285.123 51.968 284.013 51.392C282.925 50.816 282.061 49.9627 281.421 48.832C280.803 47.7013 280.493 46.336 280.493 44.736V34.368H284.109V44.192C284.109 45.7707 284.504 46.9867 285.293 47.84C286.083 48.672 287.16 49.088 288.525 49.088C289.891 49.088 290.968 48.672 291.757 47.84C292.568 46.9867 292.973 45.7707 292.973 44.192V34.368H296.621Z" fill="black"/>
<path d="M216.167 31.6875C216.402 29.4219 217.365 27.599 219.058 26.2188C220.23 25.3073 221.558 24.7865 223.042 24.6562V26.1406C223.042 26.1406 222.652 26.2188 221.87 26.375C219.631 27.0781 218.238 28.8229 217.691 31.6094C217.665 31.7396 217.639 31.8698 217.613 32L216.167 31.6875ZM216.909 52V50.5156H232.691V52H216.909ZM216.909 48.875C216.909 44.7344 219.813 41.401 225.62 38.875C226.115 38.6406 226.402 38.5104 226.48 38.4844C228.459 37.5208 229.787 36.5703 230.464 35.6328C231.063 34.7734 231.363 33.7969 231.363 32.7031C231.31 28.3542 229.123 26.1667 224.8 26.1406V24.6562C228.81 24.6562 231.35 26.2188 232.417 29.3438C232.782 30.3594 232.951 31.4792 232.925 32.7031C232.873 35.2552 231.649 37.2474 229.253 38.6797C228.993 38.8359 228.719 38.9922 228.433 39.1484C228.172 39.2786 227.717 39.5 227.066 39.8125C224.071 41.1927 221.962 42.4948 220.738 43.7188C219.227 45.2552 218.472 46.974 218.472 48.875H216.909Z" fill="#00B207"/>
</svg>
