<svg width="40" height="40" viewBox="0 0 40 40" fill="none" xmlns="http://www.w3.org/2000/svg">
<g clip-path="url(#clip0_3_6916)">
<path d="M38.3959 9.43014C38.3959 9.27818 38.3621 9.12621 38.2946 8.98269C38.1595 8.69565 37.8978 8.50148 37.6107 8.44238L20.4136 0.101309C20.135 -0.0337695 19.8058 -0.0337695 19.5272 0.101309L2.16118 8.51836C1.82348 8.67877 1.60398 9.01646 1.5871 9.39637V9.40481C1.5871 9.41325 1.5871 9.4217 1.5871 9.43858V30.5614C1.5871 30.9498 1.8066 31.3043 2.16118 31.4732L19.5272 39.8903C19.5356 39.8903 19.5356 39.8903 19.544 39.8987C19.5694 39.9071 19.5947 39.9156 19.62 39.9325C19.6285 39.9325 19.6369 39.9409 19.6538 39.9409C19.6791 39.9493 19.7044 39.9578 19.7298 39.9662C19.7382 39.9662 19.7467 39.9747 19.7551 39.9747C19.7804 39.9831 19.8142 39.9831 19.8395 39.9916C19.848 39.9916 19.8564 39.9916 19.8649 39.9916C19.8986 39.9916 19.9408 40 19.9746 40C20.0084 40 20.0506 40 20.0844 39.9916C20.0928 39.9916 20.1012 39.9916 20.1097 39.9916C20.135 39.9916 20.1688 39.9831 20.1941 39.9747C20.2025 39.9747 20.211 39.9662 20.2194 39.9662C20.2448 39.9578 20.2701 39.9493 20.2954 39.9409C20.3039 39.9409 20.3123 39.9325 20.3292 39.9325C20.3545 39.924 20.3798 39.9156 20.4052 39.8987C20.4136 39.8987 20.4136 39.8987 20.422 39.8903L37.8387 31.4479C38.1848 31.279 38.4128 30.9244 38.4128 30.5361V9.45547C38.3959 9.44702 38.3959 9.43858 38.3959 9.43014ZM19.9662 2.13592L35.0274 9.43858L29.4807 12.1317L14.4195 4.82904L19.9662 2.13592ZM19.9662 16.7412L4.90495 9.43858L12.0979 5.95188L27.1591 13.2545L19.9662 16.7412ZM3.61327 11.068L18.9531 18.5057V37.3575L3.61327 29.9198V11.068ZM20.9792 37.3575V18.5057L28.1806 15.0106V19.9409C28.1806 20.4981 28.6365 20.954 29.1937 20.954C29.7509 20.954 30.2068 20.4981 30.2068 19.9409V14.0228L36.3697 11.0342V29.886L20.9792 37.3575Z" fill="#00B307"/>
</g>
<defs>
<clipPath id="clip0_3_6916">
<rect width="40" height="40" fill="white"/>
</clipPath>
</defs>
</svg>
