<svg width="1464" height="1222" viewBox="0 0 1464 1222" fill="none" xmlns="http://www.w3.org/2000/svg">
<g clip-path="url(#clip0_88_17329)">
<path d="M68.0269 1164.44C88.334 1202.09 131.433 1218.26 131.433 1218.26C131.433 1218.26 141.608 1173.37 121.301 1135.71C100.993 1098.06 57.8944 1081.89 57.8944 1081.89C57.8944 1081.89 47.7198 1126.78 68.0269 1164.44Z" fill="#2F2E41"/>
<path d="M81.9849 1152.05C118.648 1174.1 132.768 1217.91 132.768 1217.91C132.768 1217.91 87.4455 1225.96 50.7828 1203.91C14.12 1181.85 0 1138.04 0 1138.04C0 1138.04 45.3221 1129.99 81.9849 1152.05Z" fill="#00B207"/>
<path d="M956.254 186.097H952.986V216.322H956.254V186.097Z" fill="#F2F2F2"/>
<path d="M1160.5 259.616H1157.23V289.84H1160.5V259.616Z" fill="#F2F2F2"/>
<path d="M1137.62 1017.68H1134.35V1047.9H1137.62V1017.68Z" fill="#F2F2F2"/>
<path d="M1185 767.713H1181.74V797.937H1185V767.713Z" fill="#F2F2F2"/>
<path d="M591.58 1147.19H204.689V1144.41H588.796V1009.43H237.214L220.134 973.853L222.644 972.649L238.965 1006.65H591.58V1147.19Z" fill="#2F2E41"/>
<path d="M256.181 1215.38C272.322 1215.38 285.407 1202.3 285.407 1186.16C285.407 1170.02 272.322 1156.94 256.181 1156.94C240.04 1156.94 226.956 1170.02 226.956 1186.16C226.956 1202.3 240.04 1215.38 256.181 1215.38Z" fill="#3F3D56"/>
<path d="M544.262 1215.38C560.403 1215.38 573.488 1202.3 573.488 1186.16C573.488 1170.02 560.403 1156.94 544.262 1156.94C528.122 1156.94 515.037 1170.02 515.037 1186.16C515.037 1202.3 528.122 1215.38 544.262 1215.38Z" fill="#3F3D56"/>
<path d="M883.836 583.618C893.828 583.618 901.929 575.519 901.929 565.528C901.929 555.537 893.828 547.438 883.836 547.438C873.845 547.438 865.744 555.537 865.744 565.528C865.744 575.519 873.845 583.618 883.836 583.618Z" fill="#3F3D56"/>
<path d="M632.96 963.511H198.092L103.997 655.979H729.864L729.294 657.788L632.96 963.511ZM200.151 960.727H630.919L726.069 658.762H107.759L200.151 960.727Z" fill="#2F2E41"/>
<path d="M599.015 947.508H217.054L134.407 674.764H684.127L683.628 676.37L599.015 947.508Z" fill="url(#paint0_linear_88_17329)"/>
<path d="M737.662 628.505L734.97 627.791L753.337 558.57H860.178V561.354H755.48L737.662 628.505Z" fill="#2F2E41"/>
<path d="M698.589 749.212H134.404V751.995H698.589V749.212Z" fill="#2F2E41"/>
<path d="M666.279 851.747H165.777V854.53H666.279V851.747Z" fill="#2F2E41"/>
<path d="M418.314 657.37H415.531V962.119H418.314V657.37Z" fill="#2F2E41"/>
<path d="M542.931 657.283L522.951 962.024L525.729 962.206L545.709 657.465L542.931 657.283Z" fill="#2F2E41"/>
<path d="M290.971 657.28L288.193 657.461L308.057 962.209L310.835 962.028L290.971 657.28Z" fill="#2F2E41"/>
<path d="M1464 1217.15H0V1220.41H1464V1217.15Z" fill="#2F2E41"/>
<path d="M972.859 101.09C972.859 101.09 996.744 169.064 982.045 179.522C967.347 189.98 1031.65 275.383 1031.65 275.383L1108.82 254.468L1066.56 183.008C1066.56 183.008 1061.05 111.548 1061.05 101.09C1061.05 90.6324 972.859 101.09 972.859 101.09Z" fill="#A0616A"/>
<path opacity="0.1" d="M972.859 101.09C972.859 101.09 996.744 169.064 982.045 179.522C967.347 189.98 1031.65 275.383 1031.65 275.383L1108.82 254.468L1066.56 183.008C1066.56 183.008 1061.05 111.548 1061.05 101.09C1061.05 90.6324 972.859 101.09 972.859 101.09Z" fill="black"/>
<path d="M932.767 585.625C932.767 585.625 925.794 672.772 932.767 718.088C939.739 763.404 950.198 888.895 950.198 888.895C950.198 888.895 950.198 1125.93 988.547 1129.42C1026.9 1132.91 1054.79 1136.39 1058.27 1122.45C1061.76 1108.5 1040.84 1101.53 1051.3 1094.56C1061.76 1087.59 1065.24 1063.19 1051.3 1035.3C1037.35 1007.41 1051.3 725.06 1051.3 725.06L1117.54 902.839C1117.54 902.839 1124.51 1049.24 1131.48 1070.16C1138.45 1091.08 1124.51 1129.42 1148.91 1132.91C1173.32 1136.39 1201.21 1115.48 1215.15 1108.5C1229.1 1101.53 1194.23 1101.53 1201.21 1098.05C1208.18 1094.56 1229.1 1084.1 1222.12 1080.62C1215.15 1077.13 1208.18 909.81 1208.18 909.81C1208.18 909.81 1189.01 552.509 1164.6 538.566C1140.2 524.623 1124.51 548.639 1124.51 548.639L932.767 585.625Z" fill="#2F2E41"/>
<path d="M995.519 1115.48V1143.36C995.519 1143.36 964.143 1219.17 995.519 1219.17C1026.9 1219.17 1051.3 1227.02 1051.3 1216.57V1122.45L995.519 1115.48Z" fill="#2F2E41"/>
<path d="M1201.21 1115.43V1143.31C1201.21 1143.31 1232.58 1219.12 1201.21 1219.12C1169.83 1219.12 1145.43 1226.97 1145.43 1216.52V1122.4L1201.21 1115.43Z" fill="#2F2E41"/>
<path d="M1021.67 151.635C1056.32 151.635 1084.42 123.543 1084.42 88.8895C1084.42 54.2361 1056.32 26.144 1021.67 26.144C987.009 26.144 958.914 54.2361 958.914 88.8895C958.914 123.543 987.009 151.635 1021.67 151.635Z" fill="#A0616A"/>
<path d="M1002.49 205.666C1002.49 205.666 1019.92 257.954 1047.81 247.496L1075.7 237.039L1124.51 571.682C1124.51 571.682 1086.16 627.455 1030.38 592.597C974.602 557.738 1002.49 205.666 1002.49 205.666Z" fill="#00B207"/>
<path d="M1051.3 195.208L1066.99 162.093C1066.99 162.093 1159.37 205.666 1173.32 219.609C1187.26 233.553 1187.26 254.468 1187.26 254.468L1162.86 341.615C1162.86 341.615 1169.83 533.337 1169.83 540.309C1169.83 547.281 1194.23 585.625 1176.8 571.682C1159.37 557.738 1155.89 543.795 1141.94 564.71C1128 585.625 1096.62 610.026 1096.62 610.026L1051.3 195.208Z" fill="#3F3D56"/>
<path d="M1173.32 446.191L1162.86 543.795C1162.86 543.795 1100.11 599.569 1114.05 603.054C1128 606.54 1134.97 592.597 1134.97 592.597C1134.97 592.597 1159.37 616.998 1173.32 603.054C1187.26 589.111 1222.12 456.648 1222.12 456.648L1173.32 446.191Z" fill="#A0616A"/>
<path d="M1023 0.212177C1009.09 -0.285088 994.204 -0.531067 982.475 6.96482C977.078 10.7267 972.344 15.3598 968.468 20.6745C957.044 35.1144 947.174 53.283 951.417 71.1989L956.346 69.2769C956.345 74.0593 955.282 78.7817 953.233 83.1028C953.927 81.0849 956.251 84.3469 955.629 86.388L950.2 104.197C959.124 100.926 970.226 107.549 971.585 116.956C972.205 96.2708 974.351 72.5513 991.133 60.4392C999.596 54.3311 1010.31 52.4665 1020.61 50.8107C1030.12 49.2831 1040.08 47.8265 1049.19 50.9558C1058.3 54.0852 1066.05 63.3969 1063.99 72.8006C1068.18 71.3545 1072.88 74.2803 1074.96 78.206C1077.03 82.1317 1077.14 86.7628 1077.2 91.2026C1081.68 94.3653 1086.77 88.0851 1088.59 82.9176C1092.88 70.7881 1096.68 57.8765 1094.38 45.2221C1092.07 32.5677 1081.76 20.4744 1068.89 20.4315C1070.45 18.7166 1071.29 16.4617 1071.22 14.1436L1060.61 13.2478C1063.3 12.8667 1065.78 11.5617 1067.61 9.55631C1063.36 14.2402 1029.89 0.458237 1023 0.212177Z" fill="#2F2E41"/>
<path d="M1019.92 184.751C1019.92 184.751 991.542 156.943 981.329 158.646C971.115 160.35 957.17 184.751 957.17 184.751C957.17 184.751 873.501 212.638 876.987 240.525C880.473 268.411 918.822 404.36 918.822 404.36C918.822 404.36 950.198 568.196 922.308 585.625C894.418 603.054 1054.79 648.371 1058.27 627.455C1061.76 606.54 1068.73 397.388 1058.27 366.016C1047.81 334.643 1019.92 184.751 1019.92 184.751Z" fill="#3F3D56"/>
<path d="M1141.94 240.525H1185.05C1185.05 240.525 1215.15 372.987 1218.64 386.931C1222.12 400.874 1229.1 467.106 1225.61 467.106C1222.12 467.106 1152.4 453.162 1152.4 463.62L1141.94 240.525Z" fill="#3F3D56"/>
<path d="M1140.48 568.546H975.455C959.351 494.471 958.006 422.902 975.455 354.524H1140.48C1113.85 421.673 1112.19 492.751 1140.48 568.546Z" fill="#F2F2F2"/>
<path d="M908.363 477.563L957.17 498.479C957.17 498.479 1051.3 512.422 1051.3 474.077C1051.3 435.733 957.17 456.648 957.17 456.648L925.792 446.617L908.363 477.563Z" fill="#A0616A"/>
<path d="M918.822 219.609L876.987 230.067L845.611 414.818C845.611 414.818 835.152 463.62 852.583 467.106C870.014 470.591 918.822 498.479 918.822 498.479C918.822 498.479 925.794 446.191 939.739 446.191L904.877 418.304L925.794 296.298L918.822 219.609Z" fill="#3F3D56"/>
</g>
<defs>
<linearGradient id="paint0_linear_88_17329" x1="409.267" y1="674.764" x2="409.267" y2="947.508" gradientUnits="userSpaceOnUse">
<stop stop-color="#1BFF24"/>
<stop offset="1" stop-color="#2F2E41"/>
</linearGradient>
<clipPath id="clip0_88_17329">
<rect width="1464" height="1222" fill="white"/>
</clipPath>
</defs>
</svg>
